# xmcd CD database file
#
# Track frame offsets:
#	150
#	29537
#	55089
#	77441
#	103770
#	129461
#	156176
#	167730
#	179797
#	196716
#	222055
#	236861
#	247114
#	261465
#	302749
#
# Disc length: 4272 seconds
#
# Revision: 0
# Processed by: cddbd v1.5.2PL0 Copyright (c) Steve Scherf et al.
# Submitted via: CDex 1.70beta2
#
DISCID=d410ae0f
DTITLE=Various Artist - Nova explore Blue Note Vol.1
DYEAR=1900
DGENRE=Jazz
TTITLE0=Bobbi Humphrey - Chicago damn
TTITLE1=Charlie Hunter featuring Mos Def - Creole
TTITLE2=Booker Ervin - Stolen moments
TTITLE3=Andrew Hill - Illusion
TTITLE4=Troublemakers - If you arrest me
TTITLE5=Sabu - Simba
TTITLE6=Joe Torres - Eleanor Rigby
TTITLE7=Gene Harris and The Three Sounds - Your love is too much
TTITLE8=Horace Silver - I've had a little talk
TTITLE9=Donald Byrd - Street lady
TTITLE10=Booster - Manzana (edit)
TTITLE11=Michel Legrand and Claude Nougaro - Le rouge et le noir
TTITLE12=Medeski, Martin and Wood - Your name is Snake Anthony
TTITLE13=Jason Moran - Planet rock (live)
TTITLE14=Nina Simone - Blackbird
EXTD=
EXTT0=
EXTT1=
EXTT2=
EXTT3=
EXTT4=
EXTT5=
EXTT6=
EXTT7=
EXTT8=
EXTT9=
EXTT10=
EXTT11=
EXTT12=
EXTT13=
EXTT14=
PLAYORDER=
